<svg width="28" height="28" viewBox="0 0 28 28" fill="none" xmlns="http://www.w3.org/2000/svg">
<circle cx="14" cy="14" r="13.5" fill="white" stroke="#C4CDD4"/>
<g clip-path="url(#clip0_2646_96)">
<path d="M12.8361 18.1492C13.0818 18.3917 13.0843 18.7874 12.8419 19.033L11.7298 20.1595C11.7284 20.1611 11.7269 20.1626 11.7254 20.1641C11.3537 20.5331 10.8656 20.7177 10.3773 20.7177C9.88913 20.7177 9.40085 20.5331 9.02915 20.1641L7.89451 19.0375C7.64964 18.7943 7.64817 18.3986 7.89134 18.1537C8.1345 17.9087 8.53013 17.9072 8.77512 18.1505L9.75205 19.1204V16.2191C9.75205 15.874 10.0318 15.5941 10.3769 15.5941C10.7221 15.5941 11.0019 15.874 11.0019 16.2191V19.1177L11.9522 18.1549C12.1948 17.9093 12.5904 17.9067 12.8361 18.1492ZM15.7807 10.0009C15.9453 10.0009 16.1096 9.93616 16.2324 9.80786L17.1245 8.87537V11.7819C17.1245 12.1271 17.4043 12.4069 17.7493 12.4069C18.0946 12.4069 18.3743 12.1271 18.3743 11.7819V8.89404L19.2708 9.81238C19.5119 10.0593 19.9075 10.0641 20.1546 9.823C20.4016 9.58191 20.4063 9.18628 20.1652 8.93933L19.0654 7.81274C18.7117 7.45044 18.2406 7.25098 17.7384 7.25098C17.2363 7.25098 16.765 7.45044 16.4113 7.81274C16.4099 7.81421 16.4084 7.81567 16.4069 7.81726L15.3292 8.94385C15.0905 9.19324 15.0993 9.58887 15.3487 9.82739C15.4698 9.94324 15.6253 10.0009 15.7807 10.0009ZM21.7431 21.535C21.5026 21.8306 21.1479 22 20.7696 22H14.6667C14.2863 22 13.9304 21.8307 13.6903 21.5355C13.4486 21.2385 13.3547 20.8528 13.4327 20.4771C13.6346 19.5045 14.1693 18.6195 14.9383 17.9851C15.2296 17.7449 15.5495 17.545 15.8889 17.3888C15.5108 16.9592 15.2807 16.3965 15.2807 15.7806C15.2807 14.4366 16.3742 13.3433 17.7181 13.3433C19.0621 13.3433 20.1555 14.4366 20.1555 15.7806C20.1555 16.3955 19.9261 16.9575 19.549 17.3867C19.8519 17.5271 20.1403 17.7034 20.4099 17.9143C20.6816 18.1271 20.7296 18.5199 20.5168 18.7916C20.3935 18.9491 20.2098 19.0315 20.0242 19.0315C19.8895 19.0315 19.7539 18.9882 19.6395 18.8987C19.0863 18.4657 18.4218 18.2367 17.7181 18.2367C16.2441 18.2367 14.9565 19.2858 14.6565 20.7311C14.6535 20.7451 14.6632 20.7498 14.6633 20.7498C14.6634 20.7499 14.6646 20.7501 14.6666 20.7501H20.7696C20.77 20.7498 20.778 20.7435 20.78 20.7328C20.7712 20.6913 20.7667 20.6482 20.7667 20.6041V20.5957C20.7667 20.2753 21.009 20.0068 21.3278 19.974C21.6466 19.9414 21.9384 20.1549 22.0035 20.4688C22.082 20.8466 21.9871 21.2352 21.7431 21.535ZM16.5307 15.7806C16.5307 16.4353 17.0634 16.968 17.7181 16.968C18.3729 16.968 18.9056 16.4353 18.9056 15.7806C18.9056 15.1259 18.3729 14.5931 17.7181 14.5931C17.0634 14.5931 16.5307 15.1259 16.5307 15.7806ZM13.3951 14.6567H7.29222C6.91185 14.6567 6.55589 14.4874 6.31578 14.1923C6.07408 13.8953 5.98021 13.5095 6.05821 13.1338C6.26011 12.1613 6.79478 11.2762 7.56382 10.6418C7.85508 10.4016 8.17503 10.2018 8.51438 10.0455C8.13633 9.61597 7.90635 9.05322 7.90635 8.43738C7.90635 7.09338 8.99973 6 10.3436 6C11.6876 6 12.781 7.09338 12.781 8.43738C12.781 9.05322 12.551 9.61597 12.1729 10.0455C12.5123 10.2018 12.8322 10.4016 13.1234 10.6418C13.877 11.2635 14.4056 12.1259 14.6165 13.0754C14.6213 13.0918 14.6256 13.1085 14.6291 13.1255C14.7075 13.5033 14.6125 13.892 14.3686 14.1918C14.1281 14.4873 13.7733 14.6567 13.3951 14.6567ZM9.15623 8.43738C9.15623 9.09204 9.68894 9.62476 10.3436 9.62476C10.9984 9.62476 11.5311 9.09204 11.5311 8.43738C11.5311 7.78259 10.9984 7.24988 10.3436 7.24988C9.68894 7.24988 9.15623 7.78259 9.15623 8.43738ZM13.4055 13.3892C13.4055 13.3887 13.4054 13.3883 13.4052 13.3879C13.1052 11.9425 11.8176 10.8934 10.3436 10.8934C8.86961 10.8934 7.58201 11.9425 7.28196 13.3879C7.27903 13.4019 7.28868 13.4065 7.2888 13.4066C7.28892 13.4066 7.29014 13.4069 7.29209 13.4069H13.3951C13.3955 13.4065 13.4038 13.4001 13.4055 13.3892Z" fill="#626262"/>
</g>
<defs>
<clipPath id="clip0_2646_96">
<rect width="16" height="16" fill="white" transform="translate(6 6)"/>
</clipPath>
</defs>
</svg>
