<svg width="14" height="14" viewBox="0 0 14 14" fill="none" xmlns="http://www.w3.org/2000/svg">
<g clip-path="url(#clip0_731_10542)">
<path d="M12.1953 1.09375H10.9375V0.4375C10.9375 0.195891 10.7416 0 10.5 0C10.2584 0 10.0625 0.195891 10.0625 0.4375V1.09375H3.9375V0.4375C3.9375 0.195891 3.74164 0 3.5 0C3.25836 0 3.0625 0.195891 3.0625 0.4375V1.09375H1.80469C0.809566 1.09375 0 1.90332 0 2.89844V12.1953C0 13.1904 0.809566 14 1.80469 14H12.1953C13.1904 14 14 13.1904 14 12.1953V2.89844C14 1.90332 13.1904 1.09375 12.1953 1.09375ZM13.125 12.1953C13.125 12.7088 12.7088 13.125 12.1953 13.125H1.80469C1.29123 13.125 0.875 12.7088 0.875 12.1953V4.94922C0.875 4.87372 0.936223 4.8125 1.01172 4.8125H12.9883C13.0638 4.8125 13.125 4.87372 13.125 4.94922V12.1953Z" fill="#7A7E84"/>
</g>
<defs>
<clipPath id="clip0_731_10542">
<rect width="14" height="14" fill="white"/>
</clipPath>
</defs>
</svg>
