<svg width="16" height="16" viewBox="0 0 16 16" fill="none" xmlns="http://www.w3.org/2000/svg">
<g clip-path="url(#clip0_794_345)">
<path d="M15.22 0.780009C14.9729 0.531909 14.6791 0.335236 14.3556 0.201355C14.032 0.0674746 13.6851 -0.000958621 13.335 1.01434e-05H1.865C1.37078 0.00132984 0.897173 0.198244 0.547704 0.547713C0.198234 0.897182 0.00131969 1.37079 0 1.86501L0 4.26501C0 4.83124 0.224937 5.37429 0.625327 5.77468C1.02572 6.17507 1.56876 6.4 2.135 6.4H2.665V13.335C2.665 13.6854 2.7341 14.0323 2.86834 14.356C3.00258 14.6797 3.19933 14.9737 3.44733 15.2212C3.69533 15.4687 3.9897 15.6649 4.31361 15.7986C4.63752 15.9322 4.98461 16.0006 5.335 16H13.335C14.0418 16 14.7197 15.7192 15.2194 15.2194C15.7192 14.7196 16 14.0418 16 13.335V2.66501C16.0012 2.31482 15.9329 1.96787 15.799 1.64428C15.6651 1.3207 15.4683 1.02693 15.22 0.780009ZM2.135 5.335C1.85122 5.335 1.57906 5.22227 1.3784 5.02161C1.17773 4.82094 1.065 4.54879 1.065 4.26501V1.86501C1.065 1.75995 1.08569 1.65592 1.1259 1.55886C1.1661 1.4618 1.22503 1.37361 1.29931 1.29932C1.3736 1.22504 1.46179 1.16611 1.55885 1.12591C1.65591 1.0857 1.75994 1.06501 1.865 1.06501C1.97006 1.06501 2.07409 1.0857 2.17115 1.12591C2.26821 1.16611 2.3564 1.22504 2.43069 1.29932C2.50497 1.37361 2.5639 1.4618 2.6041 1.55886C2.64431 1.65592 2.665 1.75995 2.665 1.86501V5.33L2.135 5.335ZM14.935 13.335C14.935 13.7593 14.7664 14.1663 14.4664 14.4664C14.1663 14.7664 13.7593 14.935 13.335 14.935H5.335C4.91065 14.935 4.50369 14.7664 4.20363 14.4664C3.90357 14.1663 3.735 13.7593 3.735 13.335V1.86501C3.73421 1.58783 3.67098 1.31439 3.55 1.06501H13.335C13.7593 1.06501 14.1663 1.23358 14.4664 1.53364C14.7664 1.8337 14.935 2.24066 14.935 2.66501V13.335Z" fill="#3E4247"/>
<path d="M12.8 4.80035H7.99999C7.92573 4.79315 7.85077 4.80156 7.77995 4.82504C7.70913 4.84852 7.644 4.88656 7.58876 4.93671C7.53351 4.98685 7.48936 5.048 7.45915 5.11623C7.42894 5.18445 7.41333 5.25824 7.41333 5.33285C7.41333 5.40746 7.42894 5.48125 7.45915 5.54948C7.48936 5.6177 7.53351 5.67885 7.58876 5.729C7.644 5.77914 7.70913 5.81718 7.77995 5.84066C7.85077 5.86415 7.92573 5.87256 7.99999 5.86535H12.8C12.8743 5.87256 12.9492 5.86415 13.02 5.84066C13.0908 5.81718 13.156 5.77914 13.2112 5.729C13.2665 5.67885 13.3106 5.6177 13.3408 5.54948C13.371 5.48125 13.3866 5.40746 13.3866 5.33285C13.3866 5.25824 13.371 5.18445 13.3408 5.11623C13.3106 5.048 13.2665 4.98685 13.2112 4.93671C13.156 4.88656 13.0908 4.84852 13.02 4.82504C12.9492 4.80156 12.8743 4.79315 12.8 4.80035Z" fill="#3E4247"/>
<path d="M12.7999 7.46484H7.99994C7.86762 7.47768 7.74481 7.53933 7.65546 7.63777C7.5661 7.73621 7.5166 7.8644 7.5166 7.99734C7.5166 8.13029 7.5661 8.25848 7.65546 8.35692C7.74481 8.45536 7.86762 8.51701 7.99994 8.52984H12.7999C12.9323 8.51701 13.0551 8.45536 13.1444 8.35692C13.2338 8.25848 13.2833 8.13029 13.2833 7.99734C13.2833 7.8644 13.2338 7.73621 13.1444 7.63777C13.0551 7.53933 12.9323 7.47768 12.7999 7.46484Z" fill="#3E4247"/>
<path d="M12.8 10.1353H7.99999C7.92573 10.1281 7.85077 10.1365 7.77995 10.16C7.70913 10.1835 7.644 10.2215 7.58876 10.2717C7.53351 10.3218 7.48936 10.383 7.45915 10.4512C7.42894 10.5194 7.41333 10.5932 7.41333 10.6678C7.41333 10.7424 7.42894 10.8162 7.45915 10.8844C7.48936 10.9527 7.53351 11.0138 7.58876 11.064C7.644 11.1141 7.70913 11.1521 7.77995 11.1756C7.85077 11.1991 7.92573 11.2075 7.99999 11.2003H12.8C12.8743 11.2075 12.9492 11.1991 13.02 11.1756C13.0908 11.1521 13.156 11.1141 13.2112 11.064C13.2665 11.0138 13.3106 10.9527 13.3408 10.8844C13.371 10.8162 13.3866 10.7424 13.3866 10.6678C13.3866 10.5932 13.371 10.5194 13.3408 10.4512C13.3106 10.383 13.2665 10.3218 13.2112 10.2717C13.156 10.2215 13.0908 10.1835 13.02 10.16C12.9492 10.1365 12.8743 10.1281 12.8 10.1353Z" fill="#3E4247"/>
<path d="M6.39993 4.80035H5.86493C5.73261 4.81319 5.6098 4.87484 5.52045 4.97328C5.43109 5.07172 5.38159 5.1999 5.38159 5.33285C5.38159 5.4658 5.43109 5.59398 5.52045 5.69243C5.6098 5.79087 5.73261 5.85251 5.86493 5.86535H6.39993C6.4742 5.87256 6.54915 5.86415 6.61997 5.84066C6.69079 5.81718 6.75592 5.77914 6.81117 5.729C6.86641 5.67885 6.91056 5.6177 6.94077 5.54948C6.97098 5.48125 6.98659 5.40746 6.98659 5.33285C6.98659 5.25824 6.97098 5.18445 6.94077 5.11623C6.91056 5.048 6.86641 4.98685 6.81117 4.93671C6.75592 4.88656 6.69079 4.84852 6.61997 4.82504C6.54915 4.80156 6.4742 4.79315 6.39993 4.80035Z" fill="#3E4247"/>
<path d="M6.39993 7.46484H5.86493C5.73261 7.47768 5.6098 7.53933 5.52045 7.63777C5.43109 7.73621 5.38159 7.8644 5.38159 7.99734C5.38159 8.13029 5.43109 8.25848 5.52045 8.35692C5.6098 8.45536 5.73261 8.51701 5.86493 8.52984H6.39993C6.53226 8.51701 6.65506 8.45536 6.74442 8.35692C6.83377 8.25848 6.88327 8.13029 6.88327 7.99734C6.88327 7.8644 6.83377 7.73621 6.74442 7.63777C6.65506 7.53933 6.53226 7.47768 6.39993 7.46484Z" fill="#3E4247"/>
<path d="M6.39993 10.1353H5.86493C5.73261 10.1482 5.6098 10.2098 5.52045 10.3082C5.43109 10.4067 5.38159 10.5349 5.38159 10.6678C5.38159 10.8008 5.43109 10.9289 5.52045 11.0274C5.6098 11.1258 5.73261 11.1875 5.86493 11.2003H6.39993C6.4742 11.2075 6.54915 11.1991 6.61997 11.1756C6.69079 11.1521 6.75592 11.1141 6.81117 11.064C6.86641 11.0138 6.91056 10.9527 6.94077 10.8844C6.97098 10.8162 6.98659 10.7424 6.98659 10.6678C6.98659 10.5932 6.97098 10.5194 6.94077 10.4512C6.91056 10.383 6.86641 10.3218 6.81117 10.2717C6.75592 10.2215 6.69079 10.1835 6.61997 10.16C6.54915 10.1365 6.4742 10.1281 6.39993 10.1353Z" fill="#3E4247"/>
</g>
<defs>
<clipPath id="clip0_794_345">
<rect width="16" height="16" fill="white"/>
</clipPath>
</defs>
</svg>
