<svg width="47" height="30" viewBox="0 0 47 30" fill="none" xmlns="http://www.w3.org/2000/svg">
<g filter="url(#filter0_d_731_10640)">
<rect x="1" width="45" height="28" rx="6" fill="url(#paint0_linear_731_10640)"/>
<rect x="1.5" y="0.5" width="44" height="27" rx="5.5" stroke="#C4CDD4"/>
</g>
<path d="M12.82 19V14.762H11.52V13.618H12.82V9.38H15.94C16.7113 9.38 17.383 9.51867 17.955 9.796C18.527 10.0647 19.0037 10.4287 19.385 10.888C19.7663 11.3473 20.0523 11.863 20.243 12.435C20.4337 13.007 20.529 13.592 20.529 14.19C20.529 14.788 20.4337 15.373 20.243 15.945C20.0523 16.517 19.7663 17.0327 19.385 17.492C19.0037 17.9513 18.527 18.3197 17.955 18.597C17.383 18.8657 16.7113 19 15.94 19H12.82ZM16.122 14.762H14.094V17.882H15.888C16.4513 17.882 16.941 17.778 17.357 17.57C17.7817 17.362 18.1327 17.0847 18.41 16.738C18.696 16.3827 18.9083 15.984 19.047 15.542C19.1857 15.1 19.255 14.6493 19.255 14.19C19.255 13.7307 19.1857 13.28 19.047 12.838C18.9083 12.396 18.696 12.0017 18.41 11.655C18.1327 11.2997 17.7817 11.018 17.357 10.81C16.941 10.602 16.4513 10.498 15.888 10.498H14.094V13.618H16.122V14.762ZM25.2101 11.98C25.6435 11.98 26.0075 12.0493 26.3021 12.188C26.5968 12.3267 26.8351 12.4913 27.0171 12.682C27.1991 12.864 27.3378 13.0373 27.4331 13.202H27.5111V12.11H28.7461V19H27.5111V17.908H27.4331C27.3378 18.0727 27.1991 18.2503 27.0171 18.441C26.8351 18.6317 26.5968 18.7963 26.3021 18.935C26.0075 19.065 25.6435 19.13 25.2101 19.13C24.6901 19.13 24.2351 19.0303 23.8451 18.831C23.4551 18.623 23.1301 18.35 22.8701 18.012C22.6101 17.6653 22.4151 17.2797 22.2851 16.855C22.1551 16.4303 22.0901 15.997 22.0901 15.555C22.0901 15.113 22.1551 14.6797 22.2851 14.255C22.4151 13.8303 22.6101 13.449 22.8701 13.111C23.1301 12.7643 23.4551 12.4913 23.8451 12.292C24.2351 12.084 24.6901 11.98 25.2101 11.98ZM25.4181 13.033C24.9588 13.033 24.5731 13.1587 24.2611 13.41C23.9491 13.6527 23.7151 13.9647 23.5591 14.346C23.4118 14.7273 23.3381 15.1303 23.3381 15.555C23.3381 15.971 23.4118 16.374 23.5591 16.764C23.7151 17.1453 23.9491 17.4617 24.2611 17.713C24.5731 17.9557 24.9588 18.077 25.4181 18.077C25.8775 18.077 26.2588 17.9557 26.5621 17.713C26.8741 17.4617 27.1038 17.1453 27.2511 16.764C27.4071 16.374 27.4851 15.971 27.4851 15.555C27.4851 15.1303 27.4071 14.7273 27.2511 14.346C27.1038 13.9647 26.8741 13.6527 26.5621 13.41C26.2588 13.1587 25.8775 13.033 25.4181 13.033ZM25.4961 21.951C25.2535 21.951 25.0498 21.8643 24.8851 21.691C24.7291 21.5263 24.6511 21.3313 24.6511 21.106C24.6511 20.872 24.7291 20.6727 24.8851 20.508C25.0498 20.3433 25.2535 20.261 25.4961 20.261C25.7388 20.261 25.9381 20.3433 26.0941 20.508C26.2588 20.6727 26.3411 20.872 26.3411 21.106C26.3411 21.34 26.2588 21.5393 26.0941 21.704C25.9381 21.8687 25.7388 21.951 25.4961 21.951ZM33.3194 19.13C32.6087 19.13 32.0714 18.948 31.7074 18.584C31.352 18.22 31.1744 17.7087 31.1744 17.05V13.124H29.9394V12.11H31.1744V10.381H32.4094V12.11H34.0864V13.124H32.4094V17.05C32.4094 17.3967 32.5047 17.6523 32.6954 17.817C32.886 17.973 33.1634 18.051 33.5274 18.051C33.718 18.051 33.9 18.038 34.0734 18.012C34.2467 17.986 34.3334 17.973 34.3334 17.973V19.026C34.3334 19.026 34.2337 19.0433 34.0344 19.078C33.835 19.1127 33.5967 19.13 33.3194 19.13Z" fill="#0F6AA9"/>
<defs>
<filter id="filter0_d_731_10640" x="0" y="0" width="47" height="30" filterUnits="userSpaceOnUse" color-interpolation-filters="sRGB">
<feFlood flood-opacity="0" result="BackgroundImageFix"/>
<feColorMatrix in="SourceAlpha" type="matrix" values="0 0 0 0 0 0 0 0 0 0 0 0 0 0 0 0 0 0 127 0" result="hardAlpha"/>
<feOffset dy="1"/>
<feGaussianBlur stdDeviation="0.5"/>
<feComposite in2="hardAlpha" operator="out"/>
<feColorMatrix type="matrix" values="0 0 0 0 0 0 0 0 0 0 0 0 0 0 0 0 0 0 0.07 0"/>
<feBlend mode="normal" in2="BackgroundImageFix" result="effect1_dropShadow_731_10640"/>
<feBlend mode="normal" in="SourceGraphic" in2="effect1_dropShadow_731_10640" result="shape"/>
</filter>
<linearGradient id="paint0_linear_731_10640" x1="23.5" y1="0" x2="23.5" y2="28" gradientUnits="userSpaceOnUse">
<stop stop-color="white"/>
<stop offset="1" stop-color="#EEF0F4"/>
</linearGradient>
</defs>
</svg>
