<svg width="14" height="14" viewBox="0 0 14 14" fill="none" xmlns="http://www.w3.org/2000/svg">
<g clip-path="url(#clip0_731_8137)">
<path d="M14 2.1875V11.8125C13.9993 12.3925 13.7687 12.9485 13.3586 13.3586C12.9485 13.7687 12.3925 13.9993 11.8125 14H2.1875C1.60754 13.9993 1.05152 13.7687 0.641423 13.3586C0.231329 12.9485 0.000651358 12.3925 0 11.8125L0 10.4453C0 10.2713 0.0691404 10.1043 0.192211 9.98127C0.315282 9.8582 0.482202 9.78906 0.65625 9.78906C0.830298 9.78906 0.997218 9.8582 1.12029 9.98127C1.24336 10.1043 1.3125 10.2713 1.3125 10.4453V11.8125C1.31275 12.0445 1.40502 12.2669 1.56906 12.4309C1.7331 12.595 1.95551 12.6872 2.1875 12.6875H11.8125C12.0445 12.6873 12.2669 12.595 12.4309 12.4309C12.595 12.2669 12.6873 12.0445 12.6875 11.8125V2.1875C12.6872 1.95551 12.595 1.7331 12.4309 1.56906C12.2669 1.40502 12.0445 1.31275 11.8125 1.3125H2.1875C1.95552 1.31276 1.73311 1.40503 1.56907 1.56907C1.40503 1.73311 1.31276 1.95552 1.3125 2.1875V3.55469C1.3125 3.72874 1.24336 3.89566 1.12029 4.01873C0.997218 4.1418 0.830298 4.21094 0.65625 4.21094C0.482202 4.21094 0.315282 4.1418 0.192211 4.01873C0.0691404 3.89566 0 3.72874 0 3.55469L0 2.1875C0.00065858 1.60754 0.231338 1.05152 0.641431 0.641431C1.05152 0.231338 1.60754 0.00065858 2.1875 0L11.8125 0C12.3925 0.000651358 12.9485 0.231329 13.3586 0.641423C13.7687 1.05152 13.9993 1.60754 14 2.1875ZM0 7C0 7.17405 0.0691404 7.34097 0.192211 7.46404C0.315282 7.58711 0.482202 7.65625 0.65625 7.65625H6.25997L4.90919 9.00703C4.84825 9.06797 4.79991 9.14031 4.76693 9.21993C4.73394 9.29955 4.71697 9.38489 4.71697 9.47107C4.71696 9.64512 4.7861 9.81205 4.90917 9.93512C5.03224 10.0582 5.19916 10.1273 5.37322 10.1273C5.54727 10.1273 5.71419 10.0582 5.83726 9.93513L8.30834 7.46405C8.36929 7.40311 8.41763 7.33077 8.45061 7.25114C8.48359 7.17152 8.50057 7.08618 8.50057 7C8.50057 6.91382 8.48359 6.82848 8.45061 6.74886C8.41763 6.66923 8.36929 6.59689 8.30834 6.53595L5.83726 4.06487C5.71419 3.94179 5.54726 3.87265 5.37321 3.87265C5.19916 3.87265 5.03223 3.94179 4.90916 4.06487C4.78609 4.18794 4.71694 4.35487 4.71694 4.52892C4.71694 4.70297 4.78609 4.86989 4.90916 4.99297L6.25994 6.34375H0.65625C0.482202 6.34375 0.315282 6.41289 0.192211 6.53596C0.0691404 6.65903 0 6.82595 0 7H0Z" fill="white"/>
</g>
<defs>
<clipPath id="clip0_731_8137">
<rect width="14" height="14" fill="white"/>
</clipPath>
</defs>
</svg>
