<svg width="89" height="30" viewBox="0 0 89 30" fill="none" xmlns="http://www.w3.org/2000/svg">
<g filter="url(#filter0_d_731_10661)">
<rect x="1" width="87" height="28" rx="6" fill="url(#paint0_linear_731_10661)"/>
<rect x="1.5" y="0.5" width="86" height="27" rx="5.5" stroke="#C4CDD4"/>
</g>
<path d="M12.04 19V9.38H13.314V13.722L17.474 9.393H19.138L14.64 14.008L19.333 19H17.617L13.314 14.411V19H12.04ZM20.8632 19V9.12H22.0982V13.111H22.1762C22.2369 13.007 22.3366 12.864 22.4752 12.682C22.6226 12.5 22.8306 12.3397 23.0992 12.201C23.3679 12.0537 23.7059 11.98 24.1132 11.98C24.6159 11.98 25.0449 12.097 25.4002 12.331C25.7556 12.5563 26.0242 12.864 26.2062 13.254C26.3969 13.644 26.4922 14.0817 26.4922 14.567V19H25.2572V14.645C25.2572 14.1857 25.1272 13.8043 24.8672 13.501C24.6159 13.1977 24.2476 13.046 23.7622 13.046C23.3722 13.046 23.0559 13.1457 22.8132 13.345C22.5706 13.5357 22.3886 13.7913 22.2672 14.112C22.1546 14.424 22.0982 14.7577 22.0982 15.113V19H20.8632ZM29.5343 11.109L31.1073 8.938H32.1603L33.7333 11.109H32.6153L31.6273 9.718L30.6523 11.109H29.5343ZM31.6403 19.13C30.9037 19.13 30.284 18.961 29.7813 18.623C29.2787 18.2763 28.8973 17.83 28.6373 17.284C28.3773 16.738 28.2473 16.1617 28.2473 15.555C28.2473 14.9397 28.3773 14.3633 28.6373 13.826C28.8973 13.28 29.2787 12.838 29.7813 12.5C30.284 12.1533 30.9037 11.98 31.6403 11.98C32.377 11.98 32.9967 12.1533 33.4993 12.5C34.002 12.838 34.3833 13.28 34.6433 13.826C34.9033 14.3633 35.0333 14.9397 35.0333 15.555C35.0333 16.1617 34.9033 16.738 34.6433 17.284C34.3833 17.83 34.002 18.2763 33.4993 18.623C32.9967 18.961 32.377 19.13 31.6403 19.13ZM31.6403 18.051C32.1083 18.051 32.4983 17.934 32.8103 17.7C33.131 17.4573 33.3693 17.1453 33.5253 16.764C33.69 16.3827 33.7723 15.9797 33.7723 15.555C33.7723 15.1217 33.69 14.7187 33.5253 14.346C33.3693 13.9647 33.131 13.657 32.8103 13.423C32.4983 13.1803 32.1083 13.059 31.6403 13.059C31.181 13.059 30.791 13.1803 30.4703 13.423C30.1497 13.657 29.907 13.9647 29.7423 14.346C29.5863 14.7187 29.5083 15.1217 29.5083 15.555C29.5083 15.9797 29.5863 16.3827 29.7423 16.764C29.907 17.1453 30.1497 17.4573 30.4703 17.7C30.791 17.934 31.181 18.051 31.6403 18.051ZM36.7928 19V12.11H38.0278V13.111H38.1058C38.1665 13.007 38.2661 12.864 38.4048 12.682C38.5521 12.5 38.7601 12.3397 39.0288 12.201C39.2975 12.0537 39.6355 11.98 40.0428 11.98C40.5455 11.98 40.9745 12.097 41.3298 12.331C41.6851 12.5563 41.9538 12.864 42.1358 13.254C42.3265 13.644 42.4218 14.0817 42.4218 14.567V19H41.1868V14.645C41.1868 14.1857 41.0568 13.8043 40.7968 13.501C40.5455 13.1977 40.1771 13.046 39.6918 13.046C39.3018 13.046 38.9855 13.1457 38.7428 13.345C38.5001 13.5357 38.3181 13.7913 38.1968 14.112C38.0841 14.424 38.0278 14.7577 38.0278 15.113V19H36.7928ZM47.56 21.73C46.988 21.73 46.5113 21.652 46.13 21.496C45.7486 21.3487 45.441 21.158 45.207 20.924C44.9816 20.6987 44.8126 20.4733 44.7 20.248C44.5873 20.0227 44.5136 19.832 44.479 19.676C44.4443 19.5287 44.427 19.455 44.427 19.455H45.662C45.662 19.455 45.6836 19.5157 45.727 19.637C45.7703 19.7583 45.8526 19.897 45.974 20.053C46.104 20.209 46.2946 20.3477 46.546 20.469C46.7973 20.5903 47.1353 20.651 47.56 20.651C48.0626 20.651 48.457 20.5513 48.743 20.352C49.029 20.1613 49.2326 19.91 49.354 19.598C49.484 19.286 49.549 18.9567 49.549 18.61V17.817H49.484C49.3973 17.9643 49.2586 18.1333 49.068 18.324C48.886 18.506 48.6433 18.6663 48.34 18.805C48.0366 18.935 47.664 19 47.222 19C46.702 19 46.247 18.9003 45.857 18.701C45.467 18.5017 45.142 18.233 44.882 17.895C44.6306 17.557 44.44 17.18 44.31 16.764C44.18 16.348 44.115 15.9233 44.115 15.49C44.115 15.0567 44.18 14.632 44.31 14.216C44.44 13.8 44.6306 13.423 44.882 13.085C45.142 12.747 45.467 12.4783 45.857 12.279C46.247 12.0797 46.702 11.98 47.222 11.98C47.664 11.98 48.0366 12.0493 48.34 12.188C48.6433 12.318 48.886 12.474 49.068 12.656C49.2586 12.838 49.3973 13.007 49.484 13.163H49.549V12.11H50.784V18.597C50.784 19.559 50.5023 20.3217 49.939 20.885C49.3843 21.4483 48.5913 21.73 47.56 21.73ZM47.456 17.947C47.9153 17.947 48.2966 17.83 48.6 17.596C48.912 17.3533 49.1416 17.0457 49.289 16.673C49.445 16.3003 49.523 15.906 49.523 15.49C49.523 15.074 49.445 14.6797 49.289 14.307C49.1416 13.9257 48.912 13.618 48.6 13.384C48.2966 13.15 47.9153 13.033 47.456 13.033C46.9966 13.033 46.611 13.15 46.299 13.384C45.987 13.618 45.753 13.9257 45.597 14.307C45.4496 14.6797 45.376 15.074 45.376 15.49C45.376 15.906 45.4496 16.3003 45.597 16.673C45.753 17.0457 45.987 17.3533 46.299 17.596C46.611 17.83 46.9966 17.947 47.456 17.947ZM58.5846 19.13C58.0646 19.13 57.6096 19.0303 57.2196 18.831C56.8296 18.623 56.5046 18.35 56.2446 18.012C55.9846 17.6653 55.7896 17.2797 55.6596 16.855C55.5296 16.4303 55.4646 15.997 55.4646 15.555C55.4646 15.113 55.5296 14.6797 55.6596 14.255C55.7896 13.8303 55.9846 13.449 56.2446 13.111C56.5046 12.7643 56.8296 12.4913 57.2196 12.292C57.6096 12.084 58.0646 11.98 58.5846 11.98C59.0179 11.98 59.3819 12.0493 59.6766 12.188C59.9712 12.3267 60.2096 12.4913 60.3916 12.682C60.5736 12.864 60.7122 13.0373 60.8076 13.202H60.8856V11.356H59.0786V10.368H60.8856V9.12H62.1206V10.368H63.3036V11.356H62.1206V19H60.8856V17.908H60.8076C60.7122 18.0727 60.5736 18.2503 60.3916 18.441C60.2096 18.6317 59.9712 18.7963 59.6766 18.935C59.3819 19.065 59.0179 19.13 58.5846 19.13ZM58.7926 18.077C59.2519 18.077 59.6332 17.9557 59.9366 17.713C60.2486 17.4617 60.4782 17.1453 60.6256 16.764C60.7816 16.374 60.8596 15.971 60.8596 15.555C60.8596 15.1303 60.7816 14.7273 60.6256 14.346C60.4782 13.9647 60.2486 13.6527 59.9366 13.41C59.6332 13.1587 59.2519 13.033 58.7926 13.033C58.3332 13.033 57.9476 13.1587 57.6356 13.41C57.3236 13.6527 57.0896 13.9647 56.9336 14.346C56.7862 14.7273 56.7126 15.1303 56.7126 15.555C56.7126 15.971 56.7862 16.374 56.9336 16.764C57.0896 17.1453 57.3236 17.4617 57.6356 17.713C57.9476 17.9557 58.3332 18.077 58.7926 18.077ZM67.5109 11.98C67.9442 11.98 68.3082 12.0493 68.6029 12.188C68.8976 12.3267 69.1359 12.4913 69.3179 12.682C69.4999 12.864 69.6386 13.0373 69.7339 13.202H69.8119V12.11H71.0469V19H69.8119V17.908H69.7339C69.6386 18.0727 69.4999 18.2503 69.3179 18.441C69.1359 18.6317 68.8976 18.7963 68.6029 18.935C68.3082 19.065 67.9442 19.13 67.5109 19.13C66.9909 19.13 66.5359 19.0303 66.1459 18.831C65.7559 18.623 65.4309 18.35 65.1709 18.012C64.9109 17.6653 64.7159 17.2797 64.5859 16.855C64.4559 16.4303 64.3909 15.997 64.3909 15.555C64.3909 15.113 64.4559 14.6797 64.5859 14.255C64.7159 13.8303 64.9109 13.449 65.1709 13.111C65.4309 12.7643 65.7559 12.4913 66.1459 12.292C66.5359 12.084 66.9909 11.98 67.5109 11.98ZM67.7189 13.033C67.2596 13.033 66.8739 13.1587 66.5619 13.41C66.2499 13.6527 66.0159 13.9647 65.8599 14.346C65.7126 14.7273 65.6389 15.1303 65.6389 15.555C65.6389 15.971 65.7126 16.374 65.8599 16.764C66.0159 17.1453 66.2499 17.4617 66.5619 17.713C66.8739 17.9557 67.2596 18.077 67.7189 18.077C68.1782 18.077 68.5596 17.9557 68.8629 17.713C69.1749 17.4617 69.4046 17.1453 69.5519 16.764C69.7079 16.374 69.7859 15.971 69.7859 15.555C69.7859 15.1303 69.7079 14.7273 69.5519 14.346C69.4046 13.9647 69.1749 13.6527 68.8629 13.41C68.5596 13.1587 68.1782 13.033 67.7189 13.033ZM67.7969 21.951C67.5542 21.951 67.3506 21.8643 67.1859 21.691C67.0299 21.5263 66.9519 21.3313 66.9519 21.106C66.9519 20.872 67.0299 20.6727 67.1859 20.508C67.3506 20.3433 67.5542 20.261 67.7969 20.261C68.0396 20.261 68.2389 20.3433 68.3949 20.508C68.5596 20.6727 68.6419 20.872 68.6419 21.106C68.6419 21.34 68.5596 21.5393 68.3949 21.704C68.2389 21.8687 68.0396 21.951 67.7969 21.951ZM75.6202 19.13C74.9095 19.13 74.3722 18.948 74.0082 18.584C73.6528 18.22 73.4752 17.7087 73.4752 17.05V13.124H72.2402V12.11H73.4752V10.381H74.7102V12.11H76.3872V13.124H74.7102V17.05C74.7102 17.3967 74.8055 17.6523 74.9962 17.817C75.1868 17.973 75.4642 18.051 75.8282 18.051C76.0188 18.051 76.2008 18.038 76.3742 18.012C76.5475 17.986 76.6342 17.973 76.6342 17.973V19.026C76.6342 19.026 76.5345 19.0433 76.3352 19.078C76.1358 19.1127 75.8975 19.13 75.6202 19.13Z" fill="#36383A"/>
<defs>
<filter id="filter0_d_731_10661" x="0" y="0" width="89" height="30" filterUnits="userSpaceOnUse" color-interpolation-filters="sRGB">
<feFlood flood-opacity="0" result="BackgroundImageFix"/>
<feColorMatrix in="SourceAlpha" type="matrix" values="0 0 0 0 0 0 0 0 0 0 0 0 0 0 0 0 0 0 127 0" result="hardAlpha"/>
<feOffset dy="1"/>
<feGaussianBlur stdDeviation="0.5"/>
<feComposite in2="hardAlpha" operator="out"/>
<feColorMatrix type="matrix" values="0 0 0 0 0 0 0 0 0 0 0 0 0 0 0 0 0 0 0.07 0"/>
<feBlend mode="normal" in2="BackgroundImageFix" result="effect1_dropShadow_731_10661"/>
<feBlend mode="normal" in="SourceGraphic" in2="effect1_dropShadow_731_10661" result="shape"/>
</filter>
<linearGradient id="paint0_linear_731_10661" x1="44.5" y1="0" x2="44.5" y2="28" gradientUnits="userSpaceOnUse">
<stop stop-color="white"/>
<stop offset="1" stop-color="#EEF0F4"/>
</linearGradient>
</defs>
</svg>
