<svg width="16" height="16" viewBox="0 0 16 16" fill="none" xmlns="http://www.w3.org/2000/svg">
<path d="M15.206 0.794115C14.9594 0.546498 14.6661 0.350208 14.3432 0.216588C14.0203 0.0829681 13.6741 0.0146682 13.3246 0.0156351H2.67543C1.97041 0.0169542 1.29465 0.297606 0.796121 0.796131C0.297596 1.29466 0.016944 1.97042 0.015625 2.67544V13.3246C0.016944 14.0297 0.297596 14.7054 0.796121 15.2039C1.29465 15.7025 1.97041 15.9831 2.67543 15.9844H13.3246C14.0301 15.9844 14.7066 15.7042 15.2054 15.2054C15.7042 14.7066 15.9844 14.0301 15.9844 13.3246V2.67544C15.9857 2.32593 15.9175 1.97966 15.7839 1.65671C15.6502 1.33375 15.4538 1.04055 15.206 0.794115ZM1.54763 1.54764C1.69515 1.39861 1.87082 1.28039 2.06443 1.19986C2.25804 1.11933 2.46574 1.0781 2.67543 1.07856H13.3246C13.7481 1.07856 14.1543 1.2468 14.4538 1.54627C14.7533 1.84575 14.9215 2.25192 14.9215 2.67544V4.27232H1.07855V2.67544C1.07836 2.46579 1.11972 2.25818 1.20023 2.0646C1.28075 1.87103 1.39882 1.69532 1.54763 1.54764ZM8.00003 11.1938C9.13261 11.194 10.2356 11.5556 11.1484 12.2261C12.0612 12.8965 12.7362 13.8408 13.0751 14.9215H11.3535C11.0542 14.2843 10.5796 13.7455 9.98531 13.368C9.39102 12.9906 8.70155 12.7902 7.99754 12.7902C7.29352 12.7902 6.60405 12.9906 6.00976 13.368C5.41547 13.7455 4.94092 14.2843 4.64159 14.9215H2.92494C3.26318 13.8404 3.938 12.8957 4.85096 12.2251C5.76392 11.5545 6.86726 11.1932 8.00003 11.1938ZM10.1259 14.9215H5.87418C6.12192 14.591 6.44323 14.3227 6.81265 14.1379C7.18208 13.9531 7.58946 13.8569 8.00253 13.8569C8.41559 13.8569 8.82297 13.9531 9.1924 14.1379C9.56182 14.3227 9.88313 14.591 10.1309 14.9215H10.1259ZM14.4474 14.4524C14.3487 14.5479 14.238 14.63 14.1181 14.697C13.8687 13.8504 13.4455 13.0652 12.8755 12.3915L14.0183 11.2487L13.2697 10.4952L12.127 11.6379C11.1146 10.7767 9.85839 10.2533 8.53399 10.1409V8.534H7.46607V10.1558C6.14167 10.2682 4.88548 10.7917 3.87309 11.6529L2.73032 10.4952L1.97679 11.2487L3.11956 12.3915C2.54961 13.0652 2.12641 13.8504 1.87699 14.697C1.63229 14.5605 1.42895 14.3605 1.28842 14.1181C1.1479 13.8757 1.07539 13.5998 1.07855 13.3197V5.33525H14.9215V13.3197C14.9226 13.5302 14.8817 13.7388 14.8012 13.9333C14.7206 14.1279 14.6021 14.3043 14.4524 14.4524H14.4474Z" fill="white"/>
</svg>
