<svg width="28" height="28" viewBox="0 0 28 28" fill="none" xmlns="http://www.w3.org/2000/svg">
<circle cx="14" cy="14" r="13.5" fill="white" stroke="#C4CDD4"/>
<g clip-path="url(#clip0_731_6241)">
<path d="M15.1331 12.1319H15.6625C15.7501 12.1319 15.8341 12.1667 15.8961 12.2286C15.958 12.2906 15.9928 12.3746 15.9928 12.4622C15.9928 12.5498 15.958 12.6338 15.8961 12.6957C15.8341 12.7577 15.7501 12.7925 15.6625 12.7925H14.4375C14.3217 12.8037 14.2143 12.8577 14.1361 12.9438C14.0579 13.0299 14.0146 13.1421 14.0146 13.2584C14.0146 13.3748 14.0579 13.4869 14.1361 13.573C14.2143 13.6592 14.3217 13.7131 14.4375 13.7244H14.9275V14C14.9212 14.065 14.9286 14.1305 14.9491 14.1925C14.9697 14.2545 15.003 14.3115 15.0468 14.3598C15.0907 14.4082 15.1442 14.4468 15.2039 14.4732C15.2636 14.4997 15.3282 14.5133 15.3935 14.5133C15.4587 14.5133 15.5233 14.4997 15.583 14.4732C15.6427 14.4468 15.6962 14.4082 15.7401 14.3598C15.784 14.3115 15.8172 14.2545 15.8378 14.1925C15.8583 14.1305 15.8657 14.065 15.8594 14V13.7069C16.1765 13.661 16.4642 13.4962 16.664 13.2458C16.8639 12.9954 16.9608 12.6783 16.9352 12.359C16.9095 12.0396 16.7632 11.7421 16.526 11.5268C16.2888 11.3115 15.9785 11.1946 15.6581 11.2H15.1331C15.0455 11.2 14.9615 11.1652 14.8996 11.1032C14.8376 11.0413 14.8028 10.9573 14.8028 10.8697C14.8028 10.7821 14.8376 10.6981 14.8996 10.6361C14.9615 10.5742 15.0455 10.5394 15.1331 10.5394H16.3538C16.4188 10.5457 16.4843 10.5383 16.5463 10.5178C16.6083 10.4972 16.6653 10.4639 16.7136 10.42C16.7619 10.3762 16.8006 10.3227 16.827 10.263C16.8534 10.2033 16.8671 10.1387 16.8671 10.0734C16.8671 10.0081 16.8534 9.94357 16.827 9.88387C16.8006 9.82418 16.7619 9.77067 16.7136 9.72679C16.6653 9.68291 16.6083 9.64963 16.5463 9.62908C16.4843 9.60854 16.4188 9.60118 16.3538 9.60748H15.8681V9.33186C15.8569 9.21607 15.803 9.10862 15.7168 9.03043C15.6307 8.95225 15.5185 8.90894 15.4022 8.90894C15.2859 8.90894 15.1737 8.95225 15.0876 9.03043C15.0014 9.10862 14.9475 9.21607 14.9363 9.33186V9.62498C14.6192 9.67079 14.3315 9.83566 14.1317 10.086C13.9318 10.3364 13.8349 10.6535 13.8605 10.9729C13.8861 11.2922 14.0324 11.5898 14.2697 11.8051C14.5069 12.0204 14.8172 12.1372 15.1375 12.1319H15.1331Z" fill="#7A7E84"/>
<path d="M20.5887 7.41125C20.3261 7.14936 19.9709 7.00159 19.6 7H11.2C10.8291 7.00159 10.4739 7.14936 10.2113 7.41125C10.0808 7.54072 9.97727 7.69476 9.90668 7.86447C9.8361 8.03418 9.79984 8.2162 9.8 8.4V14.4681H8.4C8.02945 14.4681 7.67402 14.615 7.41159 14.8766C7.14917 15.1382 7.00116 15.4932 7 15.8638V19.1319C7 19.6273 7.19682 20.1025 7.54716 20.4528C7.8975 20.8032 8.37267 21 8.86812 21H18.6681C19.2862 20.9988 19.8787 20.7528 20.3157 20.3157C20.7528 19.8787 20.9988 19.2862 21 18.6681V8.4C21.0002 8.2162 20.9639 8.03418 20.8933 7.86447C20.8227 7.69476 20.7192 7.54072 20.5887 7.41125ZM7.93188 19.1319V15.8638C7.93187 15.8025 7.94401 15.7418 7.96759 15.6853C7.99117 15.6287 8.02572 15.5774 8.06925 15.5343C8.11278 15.4912 8.16442 15.4571 8.22119 15.434C8.27796 15.411 8.33873 15.3994 8.4 15.4H9.8V19.1319C9.8 19.2545 9.77584 19.376 9.7289 19.4893C9.68196 19.6027 9.61316 19.7056 9.52642 19.7924C9.43968 19.8791 9.33671 19.9479 9.22339 19.9948C9.11006 20.0418 8.9886 20.0659 8.86594 20.0659C8.74327 20.0659 8.62181 20.0418 8.50849 19.9948C8.39516 19.9479 8.29219 19.8791 8.20546 19.7924C8.11872 19.7056 8.04992 19.6027 8.00298 19.4893C7.95604 19.376 7.93188 19.2545 7.93188 19.1319ZM20.0638 18.6637C20.0638 19.0351 19.9163 19.3911 19.6537 19.6537C19.3911 19.9163 19.0351 20.0638 18.6637 20.0638H10.4738C10.6411 19.7816 10.7301 19.4599 10.7319 19.1319V8.4C10.7319 8.27585 10.7812 8.15678 10.869 8.06899C10.9568 7.9812 11.0758 7.93188 11.2 7.93188H19.6C19.7242 7.93188 19.8432 7.9812 19.931 8.06899C20.0188 8.15678 20.0681 8.27585 20.0681 8.4L20.0638 18.6637Z" fill="#7A7E84"/>
<path d="M17.7318 15.8682H13.068C13.003 15.8619 12.9375 15.8692 12.8755 15.8898C12.8135 15.9103 12.7565 15.9436 12.7082 15.9875C12.6598 16.0313 12.6212 16.0848 12.5948 16.1445C12.5683 16.2042 12.5547 16.2688 12.5547 16.3341C12.5547 16.3994 12.5683 16.4639 12.5948 16.5236C12.6212 16.5833 12.6598 16.6368 12.7082 16.6807C12.7565 16.7246 12.8135 16.7579 12.8755 16.7784C12.9375 16.799 13.003 16.8063 13.068 16.8H17.7318C17.7967 16.8063 17.8623 16.799 17.9243 16.7784C17.9863 16.7579 18.0433 16.7246 18.0916 16.6807C18.1399 16.6368 18.1786 16.5833 18.205 16.5236C18.2314 16.4639 18.2451 16.3994 18.2451 16.3341C18.2451 16.2688 18.2314 16.2042 18.205 16.1445C18.1786 16.0848 18.1399 16.0313 18.0916 15.9875C18.0433 15.9436 17.9863 15.9103 17.9243 15.8898C17.8623 15.8692 17.7967 15.8619 17.7318 15.8682Z" fill="#7A7E84"/>
<path d="M17.7318 18.1999H13.068C13.003 18.1936 12.9375 18.201 12.8755 18.2215C12.8135 18.2421 12.7565 18.2754 12.7082 18.3193C12.6598 18.3631 12.6212 18.4166 12.5948 18.4763C12.5683 18.536 12.5547 18.6006 12.5547 18.6659C12.5547 18.7312 12.5683 18.7957 12.5948 18.8554C12.6212 18.9151 12.6598 18.9686 12.7082 19.0125C12.7565 19.0564 12.8135 19.0897 12.8755 19.1102C12.9375 19.1308 13.003 19.1381 13.068 19.1318H17.7318C17.7967 19.1381 17.8623 19.1308 17.9243 19.1102C17.9863 19.0897 18.0433 19.0564 18.0916 19.0125C18.1399 18.9686 18.1786 18.9151 18.205 18.8554C18.2314 18.7957 18.2451 18.7312 18.2451 18.6659C18.2451 18.6006 18.2314 18.536 18.205 18.4763C18.1786 18.4166 18.1399 18.3631 18.0916 18.3193C18.0433 18.2754 17.9863 18.2421 17.9243 18.2215C17.8623 18.201 17.7967 18.1936 17.7318 18.1999Z" fill="#7A7E84"/>
</g>
<defs>
<clipPath id="clip0_731_6241">
<rect width="14" height="14" fill="white" transform="translate(7 7)"/>
</clipPath>
</defs>
</svg>
