<svg width="96" height="13" viewBox="0 0 96 13" fill="none" xmlns="http://www.w3.org/2000/svg">
<path d="M0.42 4.7H2.92C3.3 4.7 3.65 4.77 3.97 4.91C4.29 5.04333 4.56667 5.22667 4.8 5.46C5.03333 5.69333 5.21667 5.97 5.35 6.29C5.48333 6.60333 5.55 6.94 5.55 7.3C5.55 7.66 5.48333 8 5.35 8.32C5.21667 8.64 5.03333 8.91667 4.8 9.15C4.56667 9.38333 4.28667 9.57 3.96 9.71C3.64 9.84333 3.29 9.91 2.91 9.91H1.78V12H0.42V4.7ZM1.78 5.96V8.65H2.82C3.02 8.65 3.20333 8.61667 3.37 8.55C3.53667 8.47667 3.68 8.38 3.8 8.26C3.92 8.13333 4.01333 7.99 4.08 7.83C4.14667 7.66333 4.18 7.48667 4.18 7.3C4.18 7.11333 4.14667 6.94 4.08 6.78C4.01333 6.61333 3.92 6.47 3.8 6.35C3.68 6.23 3.53667 6.13667 3.37 6.07C3.20333 5.99667 3.02 5.96 2.82 5.96H1.78ZM7.23055 4.7H8.58055L10.7905 7.77L13.0905 4.7H14.3805V12H13.0205V6.88L10.7805 9.9L8.59055 6.93V12H7.23055V4.7ZM19.4402 7.76H20.1302V4.7H22.1202C22.7336 4.7 23.2802 4.79333 23.7602 4.98C24.2402 5.16667 24.6436 5.42333 24.9702 5.75C25.3036 6.07667 25.5536 6.46333 25.7202 6.91C25.8936 7.35 25.9802 7.83 25.9802 8.35C25.9802 8.87 25.8869 9.35333 25.7002 9.8C25.5136 10.2467 25.2502 10.6333 24.9102 10.96C24.5769 11.28 24.1769 11.5333 23.7102 11.72C23.2436 11.9067 22.7336 12 22.1802 12H20.1302V8.91H19.4402V7.76ZM21.4902 5.96V7.76H23.1402V8.91H21.4902V10.74H22.0202C22.4202 10.74 22.7802 10.68 23.1002 10.56C23.4202 10.44 23.6902 10.2733 23.9102 10.06C24.1369 9.84 24.3102 9.58667 24.4302 9.3C24.5569 9.00667 24.6202 8.69 24.6202 8.35C24.6202 7.99667 24.5669 7.67667 24.4602 7.39C24.3536 7.09667 24.1902 6.84333 23.9702 6.63C23.7502 6.41667 23.4736 6.25333 23.1402 6.14C22.8069 6.02 22.4136 5.96 21.9602 5.96H21.4902ZM29.4941 4.7H30.8641L33.4641 12H32.0441L31.5941 10.7H28.7641L28.3141 12H26.8941L29.4941 4.7ZM30.1741 4.25C29.9008 4.25 29.6608 4.20667 29.4541 4.12C29.2541 4.03333 29.0875 3.91667 28.9541 3.77C28.8208 3.61667 28.7208 3.43667 28.6541 3.23C28.5941 3.01667 28.5641 2.79 28.5641 2.55H29.4141C29.4141 2.87 29.4775 3.10667 29.6041 3.26C29.7375 3.41333 29.9275 3.49667 30.1741 3.51C30.4141 3.49667 30.6008 3.41333 30.7341 3.26C30.8675 3.10667 30.9341 2.87 30.9341 2.55H31.7941C31.7941 2.79 31.7575 3.01667 31.6841 3.23C31.6108 3.43667 31.5041 3.61667 31.3641 3.77C31.2241 3.91667 31.0541 4.03333 30.8541 4.12C30.6541 4.20667 30.4275 4.25 30.1741 4.25ZM29.2241 9.4H31.1441L30.1841 6.63L29.2241 9.4ZM35.0294 4.7H36.5694L39.7294 9.67V4.7H41.0894V12H39.6394L36.3894 6.87V12H35.0294V4.7ZM46.5237 12.1C45.957 12.1 45.4403 12 44.9737 11.8C44.507 11.6 44.107 11.33 43.7737 10.99C43.4403 10.6433 43.1837 10.2433 43.0037 9.79C42.8237 9.33667 42.7337 8.85667 42.7337 8.35C42.7337 7.83 42.827 7.34333 43.0137 6.89C43.2003 6.43 43.457 6.03333 43.7837 5.7C44.117 5.36 44.5103 5.09333 44.9637 4.9C45.4237 4.7 45.9237 4.6 46.4637 4.6C46.8437 4.6 47.2003 4.64667 47.5337 4.74C47.867 4.82667 48.1737 4.95333 48.4537 5.12C48.7403 5.28667 48.9937 5.48667 49.2137 5.72C49.4403 5.94667 49.6303 6.19667 49.7837 6.47L48.5837 7.19C48.357 6.77 48.067 6.45333 47.7137 6.24C47.367 6.02667 46.9537 5.92 46.4737 5.92C46.1337 5.92 45.817 5.98667 45.5237 6.12C45.237 6.24667 44.9837 6.42 44.7637 6.64C44.5503 6.86 44.3837 7.11667 44.2637 7.41C44.1437 7.70333 44.0837 8.01667 44.0837 8.35C44.0837 8.69 44.1437 9.00667 44.2637 9.3C44.3837 9.59333 44.5503 9.85 44.7637 10.07C44.9837 10.29 45.2437 10.4633 45.5437 10.59C45.8437 10.7167 46.1703 10.78 46.5237 10.78C47.0703 10.78 47.5237 10.6367 47.8837 10.35C48.2503 10.0633 48.5003 9.68 48.6337 9.2H46.3037V7.9H50.0937V8.44C50.0937 8.93333 50.0103 9.40333 49.8437 9.85C49.677 10.29 49.437 10.6767 49.1237 11.01C48.817 11.3433 48.4437 11.61 48.0037 11.81C47.5637 12.0033 47.0703 12.1 46.5237 12.1ZM57.3376 8.49L56.5476 9.47V12H55.1876V4.7H56.5476V7.69L58.9576 4.7H60.6076L58.2976 7.54L60.8176 12H59.2676L57.3376 8.49ZM62.4192 4.7H63.7792V12H62.4192V4.7ZM65.6739 4.7H70.0039V6H67.0339V7.68H70.0039V8.98H67.0339V10.7H70.0039V12H65.6739V4.7ZM67.4239 2.48H68.2639L69.4539 4.18H68.4339L67.8439 3.29L67.2539 4.18H66.2339L67.4239 2.48ZM69.2939 0.939999C69.4206 0.939999 69.5406 0.959999 69.6539 1C69.7739 1.04 69.8806 1.1 69.9739 1.18C70.0672 1.25333 70.1406 1.34667 70.1939 1.46C70.2539 1.56667 70.2839 1.68667 70.2839 1.82C70.2839 1.97333 70.2572 2.1 70.2039 2.2C70.1572 2.3 70.1006 2.38 70.0339 2.44C69.9672 2.5 69.9072 2.55 69.8539 2.59C69.8072 2.62333 69.7772 2.65 69.7639 2.67C69.7572 2.68333 69.7539 2.76667 69.7539 2.92H68.9939C68.9939 2.64667 69.0239 2.45667 69.0839 2.35C69.1439 2.23667 69.2072 2.15333 69.2739 2.1C69.3406 2.04 69.3906 1.99667 69.4239 1.97C69.4639 1.94333 69.4872 1.92 69.4939 1.9C69.5072 1.88 69.5139 1.84667 69.5139 1.8C69.4806 1.70667 69.4072 1.66 69.2939 1.66C69.2339 1.66 69.1772 1.68 69.1239 1.72C69.0772 1.76 68.9939 1.89 68.8739 2.11L68.1839 1.78C68.3572 1.44667 68.5239 1.22333 68.6839 1.11C68.8506 0.996666 69.0539 0.939999 69.2939 0.939999ZM71.7618 4.7H73.1118L75.3218 7.77L77.6218 4.7H78.9118V12H77.5518V6.88L75.3118 9.9L73.1218 6.93V12H71.7618V4.7ZM86.9215 9.49L85.4115 12H83.8815L86.1115 8.31L83.9315 4.7H85.4515L86.9215 7.13L88.3915 4.7H89.9215L87.7215 8.31L89.9615 12H88.4415L86.9215 9.49ZM91.4903 4.7H95.8203V6H92.8503V7.68H95.8203V8.98H92.8503V10.7H95.8203V12H91.4903V4.7Z" fill="#3E4247"/>
</svg>
