<svg width="16" height="16" viewBox="0 0 16 16" fill="none" xmlns="http://www.w3.org/2000/svg">
<g clip-path="url(#clip0_794_474)">
<path d="M7.42937 0C7.2782 0 7.13322 0.0600534 7.02632 0.166949C6.91943 0.273845 6.85938 0.418827 6.85938 0.57V7.43C6.85938 7.88485 7.04006 8.32106 7.36169 8.64269C7.68331 8.96431 8.11952 9.145 8.57437 9.145H15.4293C15.5046 9.145 15.5792 9.1301 15.6486 9.10114C15.7181 9.07218 15.7812 9.02975 15.8342 8.97629C15.8872 8.92283 15.9291 8.8594 15.9574 8.78967C15.9858 8.71993 16 8.64527 15.9993 8.57C15.9967 6.29791 15.0929 4.11963 13.4863 2.51302C11.8797 0.906404 9.70146 0.00264659 7.42937 0V0ZM8.57437 8C8.4991 8.00066 8.42444 7.9864 8.3547 7.95806C8.28497 7.92971 8.22154 7.88782 8.16808 7.83483C8.11462 7.78183 8.07219 7.71877 8.04323 7.64929C8.01428 7.57981 7.99937 7.50528 7.99937 7.43V1.165C9.76595 1.30366 11.425 2.0683 12.678 3.32131C13.931 4.57432 14.6957 6.23341 14.8343 8H8.57437Z" fill="#3E4247"/>
<path d="M14.0798 10.3196C14.0089 10.2943 13.9337 10.2833 13.8586 10.2872C13.7834 10.2911 13.7097 10.3099 13.6419 10.3425C13.574 10.375 13.5133 10.4206 13.4631 10.4768C13.413 10.5329 13.3745 10.5985 13.3498 10.6696C12.9037 11.9558 12.0488 13.0607 10.9157 13.8155C9.78265 14.5703 8.43367 14.9335 7.07481 14.8496C5.5217 14.7532 4.0585 14.0881 2.96465 12.9814C1.8708 11.8746 1.22294 10.4037 1.14481 8.84956C1.08042 7.503 1.45315 6.17172 2.20737 5.05435C2.96159 3.93699 4.05688 3.09343 5.32981 2.64956C5.40072 2.62461 5.46603 2.58593 5.52199 2.53575C5.57796 2.48556 5.6235 2.42483 5.656 2.35705C5.6885 2.28926 5.70733 2.21574 5.71141 2.14067C5.7155 2.06561 5.70476 1.99047 5.67981 1.91956C5.65486 1.84865 5.61618 1.78334 5.56599 1.72737C5.5158 1.67141 5.45508 1.62587 5.3873 1.59337C5.31951 1.56087 5.24598 1.54204 5.17092 1.53796C5.09586 1.53387 5.02072 1.54461 4.94981 1.56956C3.4475 2.09241 2.15416 3.08635 1.26226 4.40348C0.370361 5.7206 -0.0724205 7.29051 -0.000192318 8.87956C0.0891474 10.7187 0.851914 12.4607 2.1428 13.7737C3.43368 15.0867 5.16246 15.879 6.99981 15.9996H7.41981C8.95728 16.0084 10.459 15.5358 11.7143 14.6481C12.9696 13.7604 13.9157 12.5021 14.4198 11.0496C14.4714 10.9077 14.4645 10.7511 14.4008 10.6142C14.337 10.4774 14.2216 10.3714 14.0798 10.3196Z" fill="#3E4247"/>
</g>
<defs>
<clipPath id="clip0_794_474">
<rect width="16" height="16" fill="white"/>
</clipPath>
</defs>
</svg>
