<svg width="16" height="16" viewBox="0 0 16 16" fill="none" xmlns="http://www.w3.org/2000/svg">
<g clip-path="url(#clip0_985_2201)">
<path d="M7.99999 11.2001C7.36709 11.2001 6.7484 11.0124 6.22216 10.6608C5.69593 10.3091 5.28578 9.80936 5.04357 9.22464C4.80137 8.63991 4.738 7.9965 4.86148 7.37576C4.98495 6.75502 5.28972 6.18484 5.73725 5.73731C6.18478 5.28978 6.75496 4.98501 7.3757 4.86154C7.99644 4.73806 8.63985 4.80144 9.22458 5.04364C9.8093 5.28584 10.3091 5.69599 10.6607 6.22223C11.0123 6.74846 11.2 7.36715 11.2 8.00005C11.1987 8.84834 10.8611 9.6615 10.2613 10.2613C9.66144 10.8612 8.84828 11.1987 7.99999 11.2001ZM7.99999 5.86505C7.57773 5.86505 7.16495 5.99027 6.81385 6.22486C6.46275 6.45946 6.1891 6.7929 6.02751 7.18302C5.86591 7.57314 5.82363 8.00242 5.90601 8.41657C5.98839 8.83072 6.19173 9.21114 6.49032 9.50972C6.7889 9.80831 7.16932 10.0116 7.58347 10.094C7.99762 10.1764 8.4269 10.1341 8.81702 9.97253C9.20714 9.81094 9.54058 9.53729 9.77518 9.18619C10.0098 8.83509 10.135 8.42231 10.135 8.00005C10.135 7.43381 9.91005 6.89077 9.50966 6.49038C9.10927 6.08999 8.56623 5.86505 7.99999 5.86505Z" fill="#3E4247"/>
<path d="M8.675 16.0001H7.325C6.94006 15.9982 6.56852 15.8585 6.27774 15.6062C5.98696 15.354 5.79618 15.0059 5.74 14.6251L5.615 13.7551L4.91 14.2851C4.60106 14.5136 4.22056 14.6241 3.83726 14.5966C3.45396 14.5691 3.09314 14.4054 2.82 14.1351L1.865 13.1801C1.59468 12.9069 1.43098 12.5461 1.40347 12.1628C1.37596 11.7795 1.48646 11.399 1.715 11.0901L2.245 10.3851L1.375 10.2601C0.993743 10.2049 0.645061 10.0144 0.39262 9.72339C0.14018 9.43239 0.000824541 9.06031 0 8.67508L0 7.32508C0.000824541 6.93984 0.14018 6.56776 0.39262 6.27676C0.645061 5.98577 0.993743 5.79528 1.375 5.74008L2.245 5.61508L1.715 4.91008C1.48646 4.60113 1.37596 4.22063 1.40347 3.83733C1.43098 3.45403 1.59468 3.09321 1.865 2.82008L2.82 1.86508C3.09314 1.59476 3.45396 1.43106 3.83726 1.40355C4.22056 1.37604 4.60106 1.48654 4.91 1.71508L6.335 2.78508C6.39601 2.82517 6.44817 2.87734 6.48827 2.93835C6.52837 2.99937 6.55555 3.06794 6.56815 3.13986C6.58075 3.21177 6.57849 3.28551 6.56152 3.35652C6.54455 3.42753 6.51322 3.49432 6.46947 3.55277C6.42572 3.61121 6.37047 3.66009 6.30712 3.69638C6.24377 3.73268 6.17366 3.75562 6.10111 3.7638C6.02855 3.77198 5.9551 3.76522 5.88526 3.74394C5.81541 3.72266 5.75067 3.68732 5.695 3.64008L4.27 2.57008C4.16728 2.49402 4.04073 2.45725 3.91324 2.46642C3.78576 2.47559 3.66577 2.5301 3.575 2.62008L2.62 3.57508C2.53002 3.66585 2.47551 3.78584 2.46634 3.91332C2.45717 4.0408 2.49394 4.16736 2.57 4.27008L3.64 5.69508C3.69556 5.76925 3.7309 5.85657 3.74256 5.94851C3.75422 6.04044 3.7418 6.13383 3.70651 6.21952C3.67123 6.30521 3.61429 6.38027 3.54128 6.43734C3.46826 6.49441 3.38168 6.53153 3.29 6.54508L1.5 6.79508C1.37233 6.81315 1.25548 6.87673 1.17096 6.97411C1.08644 7.0715 1.03993 7.19613 1.04 7.32508V8.67508C1.03993 8.80402 1.08644 8.92865 1.17096 9.02604C1.25548 9.12342 1.37233 9.187 1.5 9.20508L3.265 9.45508C3.35668 9.46862 3.44326 9.50574 3.51628 9.56281C3.58929 9.61988 3.64623 9.69494 3.68151 9.78063C3.7168 9.86632 3.72922 9.95971 3.71756 10.0516C3.7059 10.1436 3.67056 10.2309 3.615 10.3051L2.57 11.7301C2.49394 11.8328 2.45717 11.9593 2.46634 12.0868C2.47551 12.2143 2.53002 12.3343 2.62 12.4251L3.575 13.3801C3.66577 13.4701 3.78576 13.5246 3.91324 13.5337C4.04073 13.5429 4.16728 13.5061 4.27 13.4301L5.695 12.3601C5.76917 12.3045 5.8565 12.2692 5.94843 12.2575C6.04037 12.2459 6.13375 12.2583 6.21945 12.2936C6.30514 12.3288 6.38019 12.3858 6.43726 12.4588C6.49433 12.5318 6.53146 12.6184 6.545 12.7101L6.795 14.4751C6.81308 14.6027 6.87666 14.7196 6.97404 14.8041C7.07142 14.8886 7.19605 14.9351 7.325 14.9351H8.675C8.8003 14.9361 8.92199 14.8931 9.01884 14.8136C9.1157 14.7341 9.18158 14.6232 9.205 14.5001C9.23568 14.3701 9.31383 14.2564 9.42411 14.1811C9.53438 14.1058 9.66881 14.0745 9.80099 14.0933C9.93317 14.1121 10.0536 14.1797 10.1385 14.2827C10.2234 14.3857 10.2668 14.5167 10.26 14.6501C10.1984 15.0263 10.0053 15.3685 9.71508 15.6158C9.42483 15.863 9.05626 15.9992 8.675 16.0001Z" fill="#3E4247"/>
<path d="M12.045 14.6C11.6988 14.6004 11.3618 14.488 11.085 14.28L9.66 13.21C9.59899 13.1699 9.54683 13.1177 9.50673 13.0567C9.46664 12.9957 9.43945 12.9271 9.42686 12.8552C9.41426 12.7833 9.41652 12.7096 9.43349 12.6386C9.45046 12.5675 9.48178 12.5008 9.52553 12.4423C9.56928 12.3839 9.62454 12.335 9.68789 12.2987C9.75124 12.2624 9.82135 12.2395 9.8939 12.2313C9.96645 12.2231 10.0399 12.2299 10.1097 12.2511C10.1796 12.2724 10.2443 12.3078 10.3 12.355L11.725 13.425C11.8277 13.5011 11.9543 13.5378 12.0818 13.5287C12.2092 13.5195 12.3292 13.465 12.42 13.375L13.375 12.42C13.465 12.3292 13.5195 12.2092 13.5287 12.0818C13.5378 11.9543 13.5011 11.8277 13.425 11.725L12.355 10.3C12.2994 10.2258 12.2641 10.1385 12.2524 10.0466C12.2408 9.95463 12.2532 9.86124 12.2885 9.77555C12.3238 9.68986 12.3807 9.61481 12.4537 9.55774C12.5267 9.50067 12.6133 9.46354 12.705 9.45L14.47 9.2C14.5977 9.18192 14.7145 9.11834 14.799 9.02096C14.8836 8.92358 14.9301 8.79895 14.93 8.67V7.32C14.9301 7.19627 14.8873 7.07632 14.8089 6.9806C14.7305 6.88487 14.6213 6.81928 14.5 6.795L12.735 6.545C12.6433 6.53146 12.5567 6.49433 12.4837 6.43726C12.4107 6.38019 12.3538 6.30514 12.3185 6.21945C12.2832 6.13375 12.2708 6.04037 12.2824 5.94843C12.2941 5.8565 12.3294 5.76917 12.385 5.695L13.455 4.27C13.5311 4.16728 13.5678 4.04073 13.5587 3.91324C13.5495 3.78576 13.495 3.66577 13.405 3.575L12.425 2.62C12.3342 2.53002 12.2142 2.47551 12.0868 2.46634C11.9593 2.45717 11.8327 2.49394 11.73 2.57L10.305 3.64C10.2308 3.69556 10.1435 3.7309 10.0516 3.74256C9.95964 3.75422 9.86625 3.7418 9.78056 3.70651C9.69487 3.67123 9.61981 3.61429 9.56274 3.54128C9.50567 3.46826 9.46855 3.38168 9.455 3.29L9.205 1.5C9.18693 1.37233 9.12335 1.25548 9.02597 1.17096C8.92858 1.08644 8.80395 1.03993 8.675 1.04H7.325C7.19606 1.03993 7.07143 1.08644 6.97404 1.17096C6.87666 1.25548 6.81308 1.37233 6.795 1.5C6.76433 1.62994 6.68618 1.74371 6.5759 1.81897C6.46562 1.89423 6.33119 1.92554 6.19901 1.90674C6.06683 1.88795 5.94645 1.82041 5.86152 1.7174C5.77659 1.61439 5.73325 1.48334 5.74 1.35C5.80157 0.97374 5.99467 0.63154 6.28493 0.384323C6.57518 0.137106 6.94374 0.000916047 7.325 0L8.675 0C9.05995 0.00185536 9.43149 0.141574 9.72227 0.393828C10.013 0.646082 10.2038 0.994174 10.26 1.375L10.385 2.245L11.09 1.715C11.3989 1.48646 11.7794 1.37596 12.1627 1.40347C12.546 1.43098 12.9069 1.59468 13.18 1.865L14.135 2.82C14.4053 3.09314 14.569 3.45396 14.5965 3.83726C14.624 4.22056 14.5135 4.60106 14.285 4.91L13.755 5.615L14.625 5.74C15.0063 5.7952 15.3549 5.98569 15.6074 6.27669C15.8598 6.56768 15.9992 6.93977 16 7.325V8.675C15.9992 9.06023 15.8598 9.43232 15.6074 9.72331C15.3549 10.0143 15.0063 10.2048 14.625 10.26L13.755 10.385L14.285 11.09C14.5135 11.3989 14.624 11.7794 14.5965 12.1627C14.569 12.546 14.4053 12.9069 14.135 13.18L13.18 14.135C13.0307 14.2834 12.8536 14.4008 12.6588 14.4806C12.4641 14.5604 12.2555 14.601 12.045 14.6Z" fill="#3E4247"/>
</g>
<defs>
<clipPath id="clip0_985_2201">
<rect width="16" height="16" fill="white"/>
</clipPath>
</defs>
</svg>
