<svg width="20" height="20" viewBox="0 0 20 20" fill="none" xmlns="http://www.w3.org/2000/svg">
<g clip-path="url(#clip0_2044_7462)">
<path d="M9.99986 9.09091C10.8962 9.09091 11.7724 8.82432 12.5177 8.32486C13.2629 7.8254 13.8438 7.1155 14.1868 6.28493C14.5298 5.45435 14.6196 4.54041 14.4447 3.65868C14.2698 2.77695 13.8382 1.96703 13.2044 1.33133C12.5706 0.695642 11.7631 0.262729 10.884 0.0873417C10.0049 -0.0880457 9.09367 0.00196947 8.26558 0.346004C7.43748 0.690039 6.72969 1.27264 6.23172 2.02014C5.73374 2.76763 5.46795 3.64645 5.46795 4.54546C5.46795 5.75099 5.94542 6.90714 6.79532 7.75958C7.64522 8.61201 8.79793 9.09091 9.99986 9.09091ZM9.99986 1.81818C10.5377 1.81818 11.0634 1.97814 11.5105 2.27781C11.9577 2.57749 12.3062 3.00343 12.512 3.50177C12.7178 4.00012 12.7717 4.54848 12.6668 5.07752C12.5618 5.60656 12.3029 6.09251 11.9226 6.47393C11.5423 6.85535 11.0578 7.11509 10.5303 7.22032C10.0029 7.32556 9.45615 7.27155 8.95929 7.06513C8.46243 6.85871 8.03776 6.50915 7.73898 6.06065C7.44019 5.61215 7.28072 5.08486 7.28072 4.54546C7.28072 3.82214 7.5672 3.12845 8.07714 2.61698C8.58707 2.10552 9.2787 1.81818 9.99986 1.81818ZM14.5318 10.9091H5.46795C4.26601 10.9091 3.1133 11.388 2.2634 12.2404C1.4135 13.0929 0.936035 14.249 0.936035 15.4545V17.2727C0.936035 17.996 1.22252 18.6897 1.73246 19.2012C2.24239 19.7127 2.93402 20 3.65518 20H16.3445C17.0657 20 17.7573 19.7127 18.2673 19.2012C18.7772 18.6897 19.0637 17.996 19.0637 17.2727V15.4545C19.0637 14.249 18.5862 13.0929 17.7363 12.2404C16.8864 11.388 15.7337 10.9091 14.5318 10.9091ZM17.2509 17.2727C17.2509 17.5138 17.1554 17.7451 16.9855 17.9156C16.8155 18.086 16.5849 18.1818 16.3445 18.1818H3.65518C3.4148 18.1818 3.18425 18.086 3.01427 17.9156C2.84429 17.7451 2.7488 17.5138 2.7488 17.2727V15.4545C2.7488 14.7312 3.03528 14.0375 3.54522 13.5261C4.05516 13.0146 4.74679 12.7273 5.46795 12.7273H14.5318C15.2529 12.7273 15.9446 13.0146 16.4545 13.5261C16.9644 14.0375 17.2509 14.7312 17.2509 15.4545V17.2727Z" fill="#3E4247"/>
</g>
<defs>
<clipPath id="clip0_2044_7462">
<rect width="20" height="20" fill="white"/>
</clipPath>
</defs>
</svg>
