<svg width="16" height="16" viewBox="0 0 16 16" fill="none" xmlns="http://www.w3.org/2000/svg">
<path d="M15.2059 0.794115C14.9593 0.546498 14.6661 0.350208 14.3431 0.216588C14.0202 0.0829681 13.674 0.0146682 13.3246 0.0156351H2.67537C1.97035 0.0169542 1.29458 0.297606 0.79606 0.796131C0.297535 1.29466 0.016883 1.97042 0.015564 2.67544V13.3246C0.016883 14.0297 0.297535 14.7054 0.79606 15.2039C1.29458 15.7025 1.97035 15.9831 2.67537 15.9844H13.3246C14.03 15.9844 14.7065 15.7042 15.2053 15.2054C15.7041 14.7066 15.9844 14.0301 15.9844 13.3246V2.67544C15.9856 2.32593 15.9174 1.97966 15.7838 1.65671C15.6502 1.33375 15.4537 1.04055 15.2059 0.794115ZM1.54757 1.54764C1.69508 1.39861 1.87076 1.28039 2.06437 1.19986C2.25798 1.11933 2.46568 1.0781 2.67537 1.07856H13.3246C13.7481 1.07856 14.1543 1.2468 14.4537 1.54627C14.7532 1.84575 14.9215 2.25192 14.9215 2.67544V4.27232H1.07849V2.67544C1.0783 2.46579 1.11966 2.25818 1.20017 2.0646C1.28069 1.87103 1.39876 1.69532 1.54757 1.54764ZM7.99997 11.1938C9.13255 11.194 10.2355 11.5556 11.1483 12.2261C12.0611 12.8965 12.7361 13.8408 13.0751 14.9215H11.3534C11.0541 14.2843 10.5795 13.7455 9.98525 13.368C9.39095 12.9906 8.70149 12.7902 7.99747 12.7902C7.29346 12.7902 6.60399 12.9906 6.0097 13.368C5.41541 13.7455 4.94085 14.2843 4.64153 14.9215H2.92488C3.26312 13.8404 3.93794 12.8957 4.8509 12.2251C5.76386 11.5545 6.8672 11.1932 7.99997 11.1938ZM10.1258 14.9215H5.87412C6.12186 14.591 6.44317 14.3227 6.81259 14.1379C7.18202 13.9531 7.5894 13.8569 8.00246 13.8569C8.41553 13.8569 8.82291 13.9531 9.19234 14.1379C9.56176 14.3227 9.88307 14.591 10.1308 14.9215H10.1258ZM14.4474 14.4524C14.3486 14.5479 14.2379 14.63 14.118 14.697C13.8686 13.8504 13.4454 13.0652 12.8754 12.3915L14.0182 11.2487L13.2697 10.4952L12.1269 11.6379C11.1145 10.7767 9.85833 10.2533 8.53393 10.1409V8.534H7.46601V10.1558C6.14161 10.2682 4.88542 10.7917 3.87303 11.6529L2.73026 10.4952L1.97673 11.2487L3.1195 12.3915C2.54955 13.0652 2.12635 13.8504 1.87693 14.697C1.63222 14.5605 1.42889 14.3605 1.28836 14.1181C1.14783 13.8757 1.07533 13.5998 1.07849 13.3197V5.33525H14.9215V13.3197C14.9226 13.5302 14.8817 13.7388 14.8011 13.9333C14.7206 14.1279 14.602 14.3043 14.4524 14.4524H14.4474Z" fill="#3E4247"/>
</svg>
